<svg width="28" height="28" viewBox="0 0 28 28" fill="none" xmlns="http://www.w3.org/2000/svg">
<g clip-path="url(#clip0_1_32)">
<path d="M16.2301 7.76389C16.2301 6.08001 15.0575 4.75 13.6586 4.75C12.308 4.75 11.1684 5.98987 11.0914 7.591L11.0872 7.76389V10H9.37293V7.76389C9.37293 5.15222 11.2704 3 13.6586 3C15.9872 3 17.8492 5.04595 17.9408 7.5689L17.9444 7.76389V10H19.5615C20.3789 10 21.0628 10.608 21.1419 11.405L22.2225 22.2939C22.3074 23.149 21.6686 23.9096 20.7958 23.9927C20.7447 23.9976 20.6934 24 20.6421 24H6.67508C5.79813 24 5.08722 23.3036 5.08722 22.4444C5.08722 22.3942 5.08971 22.3439 5.09467 22.2939L6.1753 11.405C6.2544 10.608 6.93827 10 7.75571 10H16.2301V7.76389ZM19.4547 11.75H7.86258L6.8015 22.25H20.5158L19.4547 11.75Z" fill="#1B2437"/>
</g>
<defs>
<clipPath id="clip0_1_32">
<rect width="18" height="21" fill="white" transform="translate(5 3)"/>
</clipPath>
</defs>
</svg>
