<svg width="124" height="18" viewBox="0 0 124 18" fill="none" xmlns="http://www.w3.org/2000/svg">
<g clip-path="url(#clip0_1_213)">
<path fill-rule="evenodd" clip-rule="evenodd" d="M120.785 18V8.99896H123.621L123.996 5.89714H120.785L120.79 4.34465C120.79 3.53565 120.877 3.10217 122.204 3.10217H123.976V0H121.14C117.733 0 116.534 1.50471 116.534 4.03517V5.89749H114.411V8.99931H116.534V18H120.785Z" fill="#1B2437"/>
</g>
<g clip-path="url(#clip1_1_213)">
<path fill-rule="evenodd" clip-rule="evenodd" d="M73.9594 6.70406C73.9218 5.85391 73.7843 5.26945 73.5874 4.763C73.3842 4.22542 73.0715 3.74412 72.6619 3.34402C72.2618 2.93769 71.7772 2.62195 71.2458 2.42196C70.7362 2.22502 70.1547 2.08754 69.3045 2.05006C68.4478 2.0094 68.1758 2 66.0031 2C63.8304 2 63.5584 2.0094 62.705 2.04688C61.8546 2.08437 61.2701 2.22197 60.7636 2.41878C60.2258 2.62195 59.7445 2.93451 59.3443 3.34402C58.9379 3.74412 58.6222 4.22859 58.422 4.75994C58.2251 5.26945 58.0876 5.85074 58.0501 6.70088C58.0094 7.55738 58 7.82928 58 10.0016C58 12.1739 58.0094 12.4458 58.0469 13.2991C58.0844 14.1493 58.222 14.7338 58.419 15.2402C58.6222 15.7778 58.9379 16.259 59.3443 16.6591C59.7445 17.0655 60.229 17.3812 60.7605 17.5812C61.2701 17.7782 61.8515 17.9156 62.7019 17.9531C63.5553 17.9907 63.8273 18 66.0001 18C68.1728 18 68.4447 17.9907 69.2982 17.9531C70.1486 17.9156 70.7331 17.7782 71.2395 17.5812C72.315 17.1655 73.1654 16.3154 73.5811 15.2402C73.778 14.7306 73.9156 14.1493 73.9531 13.2991C73.9906 12.4458 74 12.1739 74 10.0016C74 7.82928 73.9968 7.55738 73.9594 6.70406ZM72.5182 13.2366C72.4838 14.018 72.3525 14.44 72.2431 14.7213C71.9742 15.4183 71.4209 15.9715 70.7237 16.2404C70.4423 16.3498 70.0173 16.481 69.2387 16.5154C68.3946 16.553 68.1415 16.5622 66.0063 16.5622C63.8711 16.5622 63.6147 16.553 62.7737 16.5154C61.9922 16.481 61.5701 16.3498 61.2888 16.2404C60.9418 16.1122 60.626 15.909 60.3697 15.6434C60.104 15.3839 59.9008 15.0713 59.7725 14.7245C59.6631 14.4431 59.5318 14.018 59.4975 13.2398C59.4599 12.3958 59.4506 12.1426 59.4506 10.0078C59.4506 7.87299 59.4599 7.61671 59.4975 6.77597C59.5318 5.99457 59.6631 5.57261 59.7725 5.2913C59.9008 4.94431 60.104 4.6287 60.3729 4.3723C60.6322 4.10662 60.9449 3.90346 61.2919 3.77538C61.5733 3.66598 61.9985 3.53473 62.7769 3.5003C63.621 3.46282 63.8742 3.45342 66.0094 3.45342C68.1478 3.45342 68.4009 3.46282 69.2419 3.5003C70.0234 3.53473 70.4455 3.66598 70.7269 3.77538C71.0738 3.90346 71.3896 4.10662 71.6459 4.3723C71.9117 4.63174 72.1149 4.94431 72.2431 5.2913C72.3525 5.57261 72.4838 5.99762 72.5182 6.77597C72.5557 7.61989 72.5651 7.87299 72.5651 10.0078C72.5651 12.1426 72.5557 12.3927 72.5182 13.2366ZM65.9465 6.27744C63.7678 6.27744 62 8.04508 62 10.224C62 12.4029 63.7678 14.1705 65.9465 14.1705C68.1254 14.1705 69.893 12.4029 69.893 10.224C69.893 8.04508 68.1254 6.27744 65.9465 6.27744ZM65.9465 12.784C64.5331 12.784 63.3865 11.6376 63.3865 10.224C63.3865 8.81038 64.5331 7.66396 65.9465 7.66396C67.3602 7.66396 68.5066 8.81038 68.5066 10.224C68.5066 11.6376 67.3602 12.784 65.9465 12.784ZM70.0491 7.04267C70.558 7.04267 70.9706 6.63013 70.9706 6.12134C70.9706 5.61242 70.558 5.2 70.0491 5.2C69.5403 5.2 69.1278 5.61242 69.1278 6.12134C69.1278 6.63013 69.5403 7.04267 70.0491 7.04267Z" fill="#1B2437"/>
</g>
<g clip-path="url(#clip2_1_213)">
<path d="M18.1017 5.65738C17.4324 5.93846 16.7191 6.12476 15.9755 6.21522C16.7405 5.77799 17.3244 5.09092 17.5989 4.26277C16.8856 4.66984 16.0981 4.95738 15.2589 5.11784C14.5816 4.42754 13.6164 4 12.5634 4C10.5204 4 8.87563 5.58738 8.87563 7.53338C8.87563 7.81338 8.90038 8.08261 8.96114 8.33891C5.89325 8.19568 3.17862 6.78815 1.35499 4.644C1.03662 5.17276 0.849868 5.77799 0.849868 6.42953C0.849868 7.65291 1.50799 8.73737 2.48899 9.36522C1.89612 9.35445 1.31449 9.18968 0.821743 8.93014C0.821743 8.94091 0.821743 8.95491 0.821743 8.96891C0.821743 10.6855 2.10087 12.1114 3.77825 12.4398C3.47787 12.5184 3.1505 12.5561 2.81075 12.5561C2.57449 12.5561 2.33599 12.5432 2.11212 12.4958C2.59024 13.8948 3.94701 14.9232 5.56025 14.9566C4.30475 15.8968 2.71062 16.4632 0.984868 16.4632C0.682243 16.4632 0.391996 16.4503 0.101746 16.4148C1.73637 17.4238 3.67362 18 5.76275 18C12.5532 18 16.2657 12.6154 16.2657 7.94799C16.2657 7.79184 16.2601 7.64107 16.2522 7.49138C16.9846 6.99384 17.6 6.37245 18.1017 5.65738Z" fill="#1B2437"/>
</g>
<defs>
<clipPath id="clip0_1_213">
<rect width="10" height="18" fill="white" transform="translate(114)"/>
</clipPath>
<clipPath id="clip1_1_213">
<rect width="16" height="16" fill="white" transform="translate(58 2)"/>
</clipPath>
<clipPath id="clip2_1_213">
<rect width="18" height="14" fill="white" transform="translate(0 4)"/>
</clipPath>
</defs>
</svg>
